<?xml version="1.0" encoding="UTF-8"?>
<svg width="20px" height="20px" viewBox="0 0 20 20" version="1.1" xmlns="http://www.w3.org/2000/svg"
    xmlns:xlink="http://www.w3.org/1999/xlink">
    <g id="light-🌕/Resources/Icons/20px/Flexible/Delete" stroke="none" stroke-width="1" fill="none"
        fill-rule="evenodd">
        <g id="delete">
            <g transform="translate(3.250000, 3.250000)">
                <path
                    d="M1.5,12.75 C1.5,13.57725 2.17275,14.25 3,14.25 L10.5,14.25 C11.32725,14.25 12,13.57725 12,12.75 L12,3.75 L1.5,3.75 L1.5,12.75 Z M3,5.25 L10.5,5.25 L10.50075,12.75 L3,12.75 L3,5.25 Z"
                    id="Shape" fill="currentColor" fill-rule="nonzero"></path>
                <polygon id="Path" fill="currentColor" fill-rule="nonzero"
                    points="9 1.5 9 0 4.5 0 4.5 1.5 0 1.5 0 3 13.5 3 13.5 1.5"></polygon>
                <rect id="Rectangle" fill="currentColor" fill-rule="nonzero" x="4.5" y="6.75" width="1.5" height="4.5">
                </rect>
                <rect id="Rectangle" fill="currentColor" fill-rule="nonzero" x="7.5" y="6.75" width="1.5" height="4.5">
                </rect>
            </g>
        </g>
    </g>
</svg>