<?xml version="1.0" encoding="UTF-8"?>
<svg width="20px" height="20px" viewBox="0 0 20 20" version="1.1" xmlns="http://www.w3.org/2000/svg"
    xmlns:xlink="http://www.w3.org/1999/xlink">
    <g id="ðŸ”-Icons" stroke="none" stroke-width="1" fill="none" fill-rule="evenodd">
        <g id="xmark">
            <rect id="frame" x="0" y="0" width="20" height="20"></rect>
            <path
                d="M7.44852814,5.75147186 L9.99394373,8.29694373 L12.539697,5.75147186 C13.0083262,5.28284271 13.7681241,5.28284271 14.2367533,5.75147186 C14.7053824,6.22010101 14.7053824,6.97989899 14.2367533,7.44852814 L11.6909438,9.99394373 L14.2367533,12.539697 C14.7053824,13.0083262 14.7053824,13.7681241 14.2367533,14.2367533 C13.7681241,14.7053824 13.0083262,14.7053824 12.539697,14.2367533 L9.99394373,11.6909438 L7.44852814,14.2367533 C6.97989899,14.7053824 6.22010101,14.7053824 5.75147186,14.2367533 C5.28284271,13.7681241 5.28284271,13.0083262 5.75147186,12.539697 L8.29694373,9.99394373 L5.75147186,7.44852814 C5.28284271,6.97989899 5.28284271,6.22010101 5.75147186,5.75147186 C6.22010101,5.28284271 6.97989899,5.28284271 7.44852814,5.75147186 Z"
                fill="currentColor"></path>
        </g>
    </g>
</svg>